<svg width="24" height="24" viewBox="0 0 24 24" fill="none" xmlns="http://www.w3.org/2000/svg">
<path d="M11.9992 7.19371C9.33904 7.19371 7.19216 9.34059 7.19216 12.0007C7.19216 14.6609 9.33904 16.8078 11.9992 16.8078C14.6594 16.8078 16.8062 14.6609 16.8062 12.0007C16.8062 9.34059 14.6594 7.19371 11.9992 7.19371ZM11.9992 15.125C10.2789 15.125 8.87498 13.7211 8.87498 12.0007C8.87498 10.2804 10.2789 8.87653 11.9992 8.87653C13.7195 8.87653 15.1234 10.2804 15.1234 12.0007C15.1234 13.7211 13.7195 15.125 11.9992 15.125ZM17.0031 5.87653C16.382 5.87653 15.8804 6.37809 15.8804 6.99918C15.8804 7.62028 16.382 8.12184 17.0031 8.12184C17.6242 8.12184 18.1258 7.62262 18.1258 6.99918C18.1259 6.8517 18.097 6.70563 18.0407 6.56934C17.9843 6.43305 17.9016 6.30922 17.7974 6.20493C17.6931 6.10065 17.5692 6.01796 17.4329 5.96161C17.2967 5.90525 17.1506 5.87634 17.0031 5.87653ZM21.3695 12.0007C21.3695 10.707 21.3812 9.42496 21.3086 8.13356C21.2359 6.63356 20.8937 5.30231 19.7969 4.20543C18.6976 3.10621 17.3687 2.76637 15.8687 2.69371C14.575 2.62106 13.2929 2.63278 12.0015 2.63278C10.7078 2.63278 9.42576 2.62106 8.13435 2.69371C6.63435 2.76637 5.3031 3.10856 4.20623 4.20543C3.10701 5.30465 2.76716 6.63356 2.69451 8.13356C2.62185 9.42731 2.63357 10.7093 2.63357 12.0007C2.63357 13.2922 2.62185 14.5765 2.69451 15.8679C2.76716 17.3679 3.10935 18.6992 4.20623 19.7961C5.30545 20.8953 6.63435 21.2351 8.13435 21.3078C9.4281 21.3804 10.7101 21.3687 12.0015 21.3687C13.2953 21.3687 14.5773 21.3804 15.8687 21.3078C17.3687 21.2351 18.7 20.8929 19.7969 19.7961C20.8961 18.6968 21.2359 17.3679 21.3086 15.8679C21.3836 14.5765 21.3695 13.2945 21.3695 12.0007ZM19.307 17.5273C19.1359 17.9539 18.9297 18.2726 18.5992 18.6007C18.2687 18.9312 17.9523 19.1375 17.5258 19.3086C16.2929 19.7984 13.3656 19.6882 11.9992 19.6882C10.6328 19.6882 7.7031 19.7984 6.47029 19.3109C6.04373 19.1398 5.72498 18.9336 5.39685 18.6031C5.06638 18.2726 4.86013 17.9562 4.68904 17.5297C4.20154 16.2945 4.3117 13.3672 4.3117 12.0007C4.3117 10.6343 4.20154 7.70465 4.68904 6.47184C4.86013 6.04528 5.06638 5.72653 5.39685 5.3984C5.72732 5.07028 6.04373 4.86168 6.47029 4.69059C7.7031 4.20309 10.6328 4.31325 11.9992 4.31325C13.3656 4.31325 16.2953 4.20309 17.5281 4.69059C17.9547 4.86168 18.2734 5.06793 18.6015 5.3984C18.932 5.72887 19.1383 6.04528 19.3094 6.47184C19.7969 7.70465 19.6867 10.6343 19.6867 12.0007C19.6867 13.3672 19.7969 16.2945 19.307 17.5273Z" fill="#F2F2F2"/>
</svg>
