<?xml version="1.0" encoding="UTF-8"?> <svg xmlns="http://www.w3.org/2000/svg" xmlns:xlink="http://www.w3.org/1999/xlink" version="1.1" id="Layer_1" x="0px" y="0px" viewBox="0 0 480 480" style="enable-background:new 0 0 480 480;" xml:space="preserve"> <style type="text/css"> .st0{fill:#FFFFFF;} </style> <g> <path class="st0" d="M240,60c-99.4,0-180,80.6-180,180s80.6,180,180,180s180-80.6,180-180S339.4,60,240,60z M240,409.8 c-93.8,0-169.8-76-169.8-169.8S146.2,70.2,240,70.2s169.8,76,169.8,169.8S333.8,409.8,240,409.8z"></path> <path class="st0" d="M344.7,201l9.8-5.7l-20.9-4.3l18.6-10.7l-4.4-7.6l-18.6,10.7l6.7-20.2l-9.8,5.7l-7.2,20.5l-10.4,6l7.1-20.5 l-9.9,5.7l-7.2,20.5l-54.2,31.3v-92.7c5.2,0.7,9.8,3.2,14.1,6.1c0.6,0.4,1.4-0.3,1-1l-18.9-32c-0.3-0.5-1-0.5-1.3,0l-18.9,32 c-0.4,0.7,0.4,1.4,1,1c4.3-2.9,8.9-5.4,14.1-6.1v92.7l-54.2-31.3l-7.2-20.5l-9.9-5.7l7.1,20.5l-10.4-6l-7.2-20.5l-9.8-5.7l6.7,20.2 l-18.6-10.7l-4.4,7.6l18.6,10.7l-20.9,4.3l9.8,5.7l21.4-4l10.4,6l-21.3,4.1l9.9,5.7l21.4-4l54.2,31.3L151,286.4 c-2-4.8-2.1-10.1-1.7-15.3c0.1-0.8-1-1.1-1.4-0.4L129.5,303c-0.3,0.5,0.1,1.1,0.6,1.1l37.2,0.3c0.8,0,1-1,0.3-1.4 c-4.7-2.3-9.1-5-12.3-9.1l80.3-46.3v62.6l-14.2,16.5v11.4l14.2-16.4v12l-14.2,16.5v11.4l14.2-15.9v21.5h8.8v-21.5l14.2,15.9v-11.4 l-14.2-16.5v-12l14.2,16.4v-11.4l-14.2-16.5v-62.6l80.3,46.3c-3.2,4.1-7.7,6.8-12.3,9.1c-0.7,0.3-0.5,1.4,0.3,1.4l37.2-0.3 c0.6,0,0.9-0.6,0.6-1.1l-18.3-32.4c-0.4-0.7-1.4-0.4-1.4,0.4c0.3,5.2,0.2,10.4-1.7,15.3L248.8,240l54.2-31.3l21.4,4l9.9-5.7 l-21.3-4.1l10.4-6L344.7,201z"></path> </g> </svg> 