<?xml version="1.0" encoding="UTF-8"?> <svg xmlns="http://www.w3.org/2000/svg" xmlns:xlink="http://www.w3.org/1999/xlink" version="1.1" id="Layer_1" x="0px" y="0px" viewBox="0 0 1080 200" style="enable-background:new 0 0 1080 200;" xml:space="preserve"> <style type="text/css"> .st0{fill:#FFFFFF;} </style> <g> <g> <g> <path class="st0" d="M512,138.5h-13.2c-1,0-1.5-0.3-1.5-1.1c0-0.5,0.4-1,1.1-1.4c3.4-2.4,3.9-3.3,3.9-7.2V71.2 c0-3.9-0.5-4.8-3.9-7.2c-0.7-0.4-1.1-0.9-1.1-1.4c0-0.8,0.5-1.1,1.5-1.1H512c1,0,1.5,0.3,1.5,1.1c0,0.5-0.4,1-1.1,1.4 c-3.4,2.4-3.9,3.3-3.9,7.2v21.2c0,2.6,0.8,3.4,3.4,3.4H557c2.6,0,3.4-0.8,3.4-3.4V71.2c0-3.9-0.5-4.8-3.9-7.2 c-0.6-0.4-1.1-0.9-1.1-1.4c0-0.8,0.5-1.1,1.5-1.1h13.2c1,0,1.5,0.3,1.5,1.1c0,0.5-0.4,1-1.1,1.4c-3.4,2.4-3.9,3.3-3.9,7.2v57.6 c0,3.9,0.5,4.8,3.9,7.2c0.7,0.4,1.1,0.9,1.1,1.4c0,0.8-0.5,1.1-1.5,1.1h-13.2c-1,0-1.5-0.3-1.5-1.1c0-0.5,0.4-1,1.1-1.4 c3.4-2.4,3.9-3.3,3.9-7.2v-24.7c0-2.6-0.8-3.4-3.4-3.4h-45.2c-2.6,0-3.4,0.8-3.4,3.4v24.7c0,3.9,0.5,4.8,3.9,7.2 c0.7,0.4,1.1,0.9,1.1,1.4C513.5,138.2,512.9,138.5,512,138.5"></path> <path class="st0" d="M641.8,107.7c1.5,0,2.2-1.1,1.5-2.5L627.7,71c-0.3-0.8-1.2-0.7-1.5,0.1l-15.4,34.1c-0.6,1.5,0,2.5,1.6,2.5 H641.8z M601.6,138.5h-13.1c-1,0-1.5-0.3-1.5-1.1c0-0.7,0.3-1.1,1.2-1.7c2.6-2,3.7-2.6,6.2-8.2l29.8-66.1 c0.7-1.5,1.7-2.1,2.8-2.1c1.1,0,2.1,0.5,2.8,2.2l29.9,66c2.5,5.2,3.9,6.5,6.2,8.2c0.8,0.5,1.2,1.1,1.2,1.7c0,0.8-0.5,1.1-1.5,1.1 h-12.7c-1,0-1.5-0.3-1.5-1.1c0-0.5,0.4-1,1.1-1.4c2.7-2,3.1-3.5,1.8-6.3l-5.3-12c-2.2-4.6-2.3-5-7.4-5h-28.6 c-5,0-5.8,0.4-7.8,5.1l-4.4,9.9c-2.3,5-1.4,6.5,1.4,8.4c0.7,0.4,1.1,0.9,1.1,1.4C603.1,138.2,602.6,138.5,601.6,138.5"></path> <path class="st0" d="M933.5,107.7c1.5,0,2.2-1.1,1.5-2.5L919.4,71c-0.3-0.8-1.2-0.7-1.5,0.1l-15.4,34.1c-0.7,1.5,0,2.5,1.6,2.5 H933.5z M893.3,138.5h-13.1c-1,0-1.5-0.3-1.5-1.1c0-0.7,0.3-1.1,1.2-1.7c2.6-2,3.7-2.6,6.2-8.2l29.8-66.1 c0.7-1.5,1.7-2.1,2.8-2.1c1.1,0,2.1,0.5,2.8,2.2l29.9,66c2.5,5.2,3.9,6.5,6.2,8.2c0.8,0.5,1.2,1.1,1.2,1.7c0,0.8-0.5,1.1-1.5,1.1 h-12.7c-1,0-1.5-0.3-1.5-1.1c0-0.5,0.4-1,1.1-1.4c2.7-2,3.1-3.5,1.8-6.3l-5.3-12c-2.2-4.6-2.3-5-7.4-5h-28.6 c-5,0-5.8,0.4-7.8,5.1l-4.4,9.9c-2.3,5-1.4,6.5,1.4,8.4c0.7,0.4,1.1,0.9,1.1,1.4C894.8,138.2,894.2,138.5,893.3,138.5"></path> <path class="st0" d="M696.1,100.7c-2.1,0-3,1-3,3v26.7c0,2.1,1,3,3,3h25.2c12.6,0,21.3-4.8,21.3-16.1c0-11.7-9.9-16.7-21.4-16.7 H696.1z M696.1,66.5c-2.1,0-3,1-3,3v23.1c0,2.1,1,3,3,3h23.8c9.8,0,18.3-4.9,18.3-14.9c0-9.3-7.2-14.3-19-14.3H696.1z M683.3,61.5h37.9c15.1,0,23.9,6.6,23.9,18.3c0,8.6-5.6,14.3-11.3,16.8c-0.9,0.3-0.9,1.2,0,1.4c9.6,2.7,15.8,8.9,15.8,18.7 c0,14.8-11.9,21.7-28.7,21.7h-37.7c-1,0-1.5-0.3-1.5-1.1c0-0.5,0.4-1,1.1-1.4c3.4-2.4,3.9-3.3,3.9-7.2V71.2 c0-3.9-0.5-4.8-3.9-7.2c-0.7-0.4-1.1-0.9-1.1-1.4C681.8,61.8,682.4,61.5,683.3,61.5"></path> <path class="st0" d="M777,71.2c0-3.9-0.5-4.8-3.9-7.2c-0.7-0.4-1.1-0.9-1.1-1.4c0-0.8,0.5-1.1,1.5-1.1h13.2c1,0,1.5,0.3,1.5,1.1 c0,0.5-0.4,1-1.1,1.4c-3.4,2.4-3.9,3.3-3.9,7.2v57.6c0,3.9,0.5,4.8,3.9,7.2c0.7,0.4,1.1,0.9,1.1,1.4c0,0.8-0.5,1.1-1.5,1.1h-13.2 c-1,0-1.5-0.3-1.5-1.1c0-0.5,0.4-1,1.1-1.4c3.4-2.4,3.9-3.3,3.9-7.2V71.2z"></path> <path class="st0" d="M871.3,61.5c3.3,0,4.6,0.9,5.6,3.9l2.3,6.3c0.7,2,0.1,3-1.3,3c-1.4,0-2.6-1.6-3.9-3.1 c-2.9-3.5-4.6-5.2-11.7-5.2h-12.6c-2.6,0-3.4,0.8-3.4,3.4v59.1c0,3.9,0.5,4.8,3.9,7.2c0.7,0.4,1.1,0.9,1.1,1.4 c0,0.8-0.5,1.1-1.5,1.1h-13.2c-1,0-1.5-0.3-1.5-1.1c0-0.5,0.4-1,1.1-1.4c3.4-2.4,3.9-3.3,3.9-7.2V69.8c0-2.6-0.8-3.4-3.4-3.4H824 c-7.2,0-8.8,1.7-11.7,5.2c-1.3,1.5-2.5,3.1-3.9,3.1s-2-1.1-1.3-3l2.3-6.3c1.1-3,2.4-3.9,5.6-3.9H871.3z"></path> <path class="st0" d="M982.2,134.8c-1.7-0.8-3-1.1-3.8-1.1c-2.4,0-1.6,4.3-3.9,4.3c-1.2,0-1.8-0.8-2.2-2.5l-2.1-10.5 c-0.4-2.1,0.2-2.9,1.3-2.9c1.3,0,2.3,1,4.3,2.6c7.1,5.9,15.5,9.3,26.4,9.3c13.1,0,21.7-6.2,21.7-15.8c0-25.6-52.6-9.9-52.6-38.9 c0-12,10.2-20.2,26.6-20.2c7.5,0,12.4,1.7,16.5,3.5c1.3,0.5,2.2,0.8,2.8,0.8c2.7,0,2-3.6,4.3-3.6c1,0,1.7,0.8,2.2,3.1l1.7,9.6 c0.3,2.1-0.3,2.8-1.4,2.8c-1,0-1.8-0.5-3.9-2.6c-6.1-5.9-14.1-8.9-22.6-8.9c-12.7,0-20.1,6.1-20.1,14.4 c0,23.2,52.8,8.6,52.8,38.6c0,13.8-12,22.4-28.6,22.1C992.4,138.9,986.1,136.4,982.2,134.8"></path> </g> <g> <path class="st0" d="M269.7,99c0,23.2-8.9,40-36,40s-36-16.7-36-40s8.9-40,36-40S269.7,75.8,269.7,99z M233.7,64.3 c-21.6,0-29.2,14.3-29.2,34.7s7.6,34.7,29.2,34.7s29.2-14.3,29.2-34.7S255.2,64.3,233.7,64.3z"></path> <path class="st0" d="M269.7,99c0,23.2-8.9,40-36,40s-36-16.7-36-40s8.9-40,36-40S269.7,75.8,269.7,99z M233.7,64.3 c-21.6,0-29.2,14.3-29.2,34.7s7.6,34.7,29.2,34.7s29.2-14.3,29.2-34.7S255.2,64.3,233.7,64.3z"></path> <path class="st0" d="M324.5,139c-24.3,0-32.1-16.5-32.1-35.1l0-32.7c0-3.9-0.5-4.8-3.9-7.2c-0.7-0.4-1.1-0.9-1.1-1.4 c0-0.8,0.5-1.1,1.5-1.1h13.9c1,0,1.5,0.3,1.5,1.1c0,0.5-0.4,1-1.1,1.4c-3.4,2.4-3.9,3.3-4.2,6.9v33c0,16.2,6.3,28.9,25.4,28.9 c19.1,0,25.4-12.7,25.4-28.9v-33c-0.3-3.6-0.8-4.5-4.2-6.9c-0.7-0.4-1.1-0.9-1.1-1.4c0-0.8,0.5-1.1,1.5-1.1h13.9 c1,0,1.5,0.3,1.5,1.1c0,0.5-0.4,1-1.1,1.4c-3.4,2.4-3.9,3.3-3.9,7.2l0,32.7C356.6,122.5,348.8,139,324.5,139z"></path> <path class="st0" d="M446.8,135.3c-2.5-1.7-4.1-3-7.1-8.1l-13.4-23.7c9.6-2.1,19-8.1,19-20.6c0-14.9-10.7-21.5-27.4-21.5h-35.1 c-1,0-1.5,0.3-1.5,1.1c0,0.5,0.4,1,1.1,1.4c3.4,2.4,3.9,3.3,3.9,7.2v57.5c0,3.9-0.5,4.8-3.9,7.2c-0.6,0.4-1.1,0.9-1.1,1.4 c0,0.8,0.5,1.1,1.5,1.1h11.3h1.9c1,0,1.5-0.3,1.5-1.1c0-0.5-0.4-1-1.1-1.4c-3.3-2.4-3.9-3.2-3.9-7.1v-21.3c0-2.1,1-3,3-3H418 c0.7,0,1.5,0,2.2-0.1l14.4,25.1c1.4,2.5,1.6,4.2-1.2,6.3c-0.6,0.5-0.9,0.8-0.9,1.4c0,0.8,0.7,1.1,1.6,1.1h12.7 c1,0,1.4-0.6,1.4-1.3C448.2,136.3,447.6,135.8,446.8,135.3z M395.7,99.2c-2.1,0-3-1-3-3V69.5c0-2.1,1-3,3-3H418 c12.6,0,21.3,5.1,21.3,16.4c0,11.7-9.9,16.4-21.3,16.4H395.7z"></path> </g> </g> <g> <path class="st0" d="M148.3,100c0,27.3-22.1,49.4-49.4,49.4S49.5,127.3,49.5,100s22.1-49.4,49.4-49.4S148.3,72.7,148.3,100z M98.9,53.4c-25.7,0-46.6,20.9-46.6,46.6s20.9,46.6,46.6,46.6s46.6-20.9,46.6-46.6S124.6,53.4,98.9,53.4z"></path> <g> <path class="st0" d="M99.3,72.4c1.8,0,3.3,0.8,4.7,1.7c0.2,0.1,0.4-0.1,0.3-0.3l-5.2-8.8c-0.1-0.1-0.3-0.1-0.3,0l-5.2,8.8 c-0.1,0.2,0.1,0.4,0.3,0.3c1.4-0.9,2.9-1.7,4.7-1.7H99.3z"></path> <polyline class="st0" points="100.1,71.7 100.1,119.3 104,123.8 104,126.9 100.1,122.4 100.1,125.7 104,130.2 104,133.3 100.1,129 100.1,134.9 97.7,134.9 97.7,129 93.8,133.3 93.8,130.2 97.7,125.7 97.7,122.4 93.8,126.9 93.8,123.8 97.7,119.3 97.7,71.7 "></polyline> </g> </g> <g> <g> <path class="st0" d="M74.8,113.5c-0.9-1.5-0.9-3.2-0.8-4.9c0-0.2-0.3-0.3-0.4-0.1l-5,8.9c-0.1,0.1,0,0.3,0.2,0.3l10.2,0.1 c0.2,0,0.3-0.3,0.1-0.4c-1.5-0.8-3-1.7-3.9-3.2L74.8,113.5z"></path> <polyline class="st0" points="73.8,113.1 115,89.3 117,83.7 119.7,82.1 117.7,87.8 120.6,86.1 122.5,80.5 125.2,78.9 123.4,84.5 128.5,81.5 129.7,83.6 124.6,86.6 130.3,87.7 127.6,89.3 121.8,88.2 118.9,89.8 124.8,91 122.1,92.5 116.2,91.4 75,115.2 "></polyline> </g> </g> <g> <g> <path class="st0" d="M122.6,114.1c-0.9,1.5-2.3,2.4-3.9,3.2c-0.2,0.1-0.1,0.4,0.1,0.4l10.2-0.1c0.2,0,0.2-0.2,0.2-0.3l-5-8.9 c-0.1-0.2-0.4-0.1-0.4,0.1c0.1,1.7,0,3.4-0.8,4.9L122.6,114.1z"></path> <polyline class="st0" points="122.9,115.2 81.6,91.4 75.8,92.5 73.1,91 78.9,89.8 76.1,88.2 70.2,89.3 67.5,87.7 73.2,86.6 68.1,83.6 69.3,81.5 74.4,84.5 72.6,78.9 75.3,80.5 77.3,86.1 80.1,87.8 78.2,82.1 80.9,83.7 82.8,89.3 124.1,113.1 "></polyline> </g> </g> </g> </svg> 