<svg width="24" height="19" viewBox="0 0 24 19" fill="none" xmlns="http://www.w3.org/2000/svg">
<path d="M23.4985 2.93642C23.2225 1.78058 22.4092 0.870276 21.3766 0.561352C19.505 0 12 0 12 0C12 0 4.49503 0 2.62336 0.561352C1.59077 0.870325 0.777523 1.78058 0.501503 2.93642C0 5.03144 0 9.40252 0 9.40252C0 9.40252 0 13.7736 0.501503 15.8686C0.777523 17.0245 1.59077 17.8968 2.62336 18.2058C4.49503 18.7671 12 18.7671 12 18.7671C12 18.7671 19.505 18.7671 21.3766 18.2058C22.4092 17.8968 23.2225 17.0245 23.4985 15.8686C24 13.7736 24 9.40252 24 9.40252C24 9.40252 24 5.03144 23.4985 2.93642ZM9.54544 13.3711V5.43391L15.8181 9.40262L9.54544 13.3711Z" fill="#F2F2F2"/>
</svg>
